<svg width="50" height="50" viewBox="0 0 50 50" fill="none" xmlns="http://www.w3.org/2000/svg">
<path d="M19.959 7.30207C20.0933 7.16747 20.2891 7.11475 20.4729 7.16369L37.8059 11.7857C37.9897 11.8348 38.1337 11.9778 38.1832 12.1615L42.8472 29.4831C42.8967 29.6667 42.844 29.8628 42.7096 29.9975L30.0409 42.6979C29.9066 42.8325 29.7108 42.8852 29.527 42.8363L12.194 38.2142C12.0102 38.1652 11.8662 38.0221 11.8167 37.8384L7.15265 20.5169C7.10319 20.3332 7.1559 20.1372 7.29024 20.0025L19.959 7.30207Z" stroke="url(#paint0_linear_1_91)" stroke-width="3.19457"/>
<path d="M20.5222 12.6767C20.8828 12.3153 21.4088 12.1736 21.9022 12.3052L33.5336 15.4065C34.027 15.5381 34.4127 15.9228 34.5454 16.4158L37.6753 28.0397C37.808 28.5327 37.6677 29.0591 37.3071 29.4206L28.8055 37.943C28.4449 38.3045 27.9189 38.4461 27.4255 38.3146L15.794 35.2132C15.3007 35.0817 14.915 34.6969 14.7822 34.2039L11.6524 22.5801C11.5196 22.0871 11.66 21.5607 12.0206 21.1992L20.5222 12.6767Z" fill="url(#paint1_linear_1_91)"/>
<circle cx="38.3113" cy="10.7872" r="6.63401" fill="#8E54E9" stroke="white" stroke-width="2"/>
<circle cx="10.1412" cy="38.9573" r="6.63401" fill="#4776E6" stroke="white" stroke-width="2"/>
<defs>
<linearGradient id="paint0_linear_1_91" x1="10.7989" y1="40.1961" x2="40.1961" y2="10.199" gradientUnits="userSpaceOnUse">
<stop stop-color="#4776E6"/>
<stop offset="1" stop-color="#8E54E9"/>
</linearGradient>
<linearGradient id="paint1_linear_1_91" x1="16.3386" y1="35.0135" x2="33.2407" y2="16.4213" gradientUnits="userSpaceOnUse">
<stop stop-color="#4776E6"/>
<stop offset="1" stop-color="#8E54E9"/>
</linearGradient>
</defs>
</svg>
