<svg width="16" height="16" viewBox="0 0 16 16" fill="none" xmlns="http://www.w3.org/2000/svg">
<path fill-rule="evenodd" clip-rule="evenodd" d="M1.5 5C1.5 4.44772 1.94772 4 2.5 4H13.5C14.0523 4 14.5 4.44772 14.5 5V13C14.5 13.5523 14.0523 14 13.5 14H2.5C1.94772 14 1.5 13.5523 1.5 13V5ZM13.5 5H2.5V13H13.5V5Z" fill="#000"/>
<path fill-rule="evenodd" clip-rule="evenodd" d="M8 2.5C7.46957 2.5 6.96086 2.71071 6.58579 3.08579C6.21071 3.46086 6 3.96957 6 4.5V6.5C6 6.77614 5.77614 7 5.5 7C5.22386 7 5 6.77614 5 6.5V4.5C5 3.70435 5.31607 2.94129 5.87868 2.37868C6.44129 1.81607 7.20435 1.5 8 1.5C8.79565 1.5 9.55871 1.81607 10.1213 2.37868C10.6839 2.94129 11 3.70435 11 4.5V6.5C11 6.77614 10.7761 7 10.5 7C10.2239 7 10 6.77614 10 6.5V4.5C10 3.96957 9.78929 3.46086 9.41421 3.08579C9.03914 2.71071 8.53043 2.5 8 2.5Z" fill="#000"/>
</svg>
