<svg width="16" height="16" viewBox="0 0 16 16" fill="none" xmlns="http://www.w3.org/2000/svg">
<path fill-rule="evenodd" clip-rule="evenodd" d="M7.73799 1.57417C7.8987 1.47528 8.10139 1.47528 8.26209 1.57417L14.7621 5.57417C14.9526 5.69141 15.0421 5.92093 14.9811 6.13617C14.9202 6.35141 14.7237 6.5 14.5 6.5H1.50004C1.27634 6.5 1.07987 6.35141 1.01894 6.13617C0.95802 5.92093 1.04748 5.69141 1.23799 5.57417L7.73799 1.57417ZM3.26656 5.5H12.7335L8.00004 2.58709L3.26656 5.5Z" fill="#000"/>
<path fill-rule="evenodd" clip-rule="evenodd" d="M3.5 5.5C3.77614 5.5 4 5.72386 4 6V11C4 11.2761 3.77614 11.5 3.5 11.5C3.22386 11.5 3 11.2761 3 11V6C3 5.72386 3.22386 5.5 3.5 5.5Z" fill="#000"/>
<path fill-rule="evenodd" clip-rule="evenodd" d="M6.5 5.5C6.77614 5.5 7 5.72386 7 6V11C7 11.2761 6.77614 11.5 6.5 11.5C6.22386 11.5 6 11.2761 6 11V6C6 5.72386 6.22386 5.5 6.5 5.5Z" fill="black"/>
<path fill-rule="evenodd" clip-rule="evenodd" d="M9.5 5.5C9.77614 5.5 10 5.72386 10 6V11C10 11.2761 9.77614 11.5 9.5 11.5C9.22386 11.5 9 11.2761 9 11V6C9 5.72386 9.22386 5.5 9.5 5.5Z" fill="black"/>
<path fill-rule="evenodd" clip-rule="evenodd" d="M12.5 5.5C12.7761 5.5 13 5.72386 13 6V11C13 11.2761 12.7761 11.5 12.5 11.5C12.2239 11.5 12 11.2761 12 11V6C12 5.72386 12.2239 5.5 12.5 5.5Z" fill="black"/>
<path fill-rule="evenodd" clip-rule="evenodd" d="M1.5 11C1.5 10.7239 1.72386 10.5 2 10.5H14C14.2761 10.5 14.5 10.7239 14.5 11C14.5 11.2761 14.2761 11.5 14 11.5H2C1.72386 11.5 1.5 11.2761 1.5 11Z" fill="black"/>
<path fill-rule="evenodd" clip-rule="evenodd" d="M0.5 13C0.5 12.7239 0.723858 12.5 1 12.5H15C15.2761 12.5 15.5 12.7239 15.5 13C15.5 13.2761 15.2761 13.5 15 13.5H1C0.723858 13.5 0.5 13.2761 0.5 13Z" fill="black"/>
</svg>
