<svg width="16" height="16" viewBox="0 0 16 16" fill="none" xmlns="http://www.w3.org/2000/svg">
<path fill-rule="evenodd" clip-rule="evenodd" d="M4.5 4C4.5 3.72386 4.72386 3.5 5 3.5H11C11.2761 3.5 11.5 3.72386 11.5 4V7C11.5 7.27614 11.2761 7.5 11 7.5H5C4.72386 7.5 4.5 7.27614 4.5 7V4ZM5.5 4.5V6.5H10.5V4.5H5.5Z" fill="#000"/>
<path fill-rule="evenodd" clip-rule="evenodd" d="M12.5 1.5C13.0523 1.5 13.5 1.94772 13.5 2.5V13.5C13.5 14.0523 13.0523 14.5 12.5 14.5H3.5C2.94771 14.5 2.5 14.0523 2.5 13.5V2.5C2.5 1.94772 2.94771 1.5 3.5 1.5L12.5 1.5ZM12.5 13.5V2.5L3.5 2.5V13.5H12.5Z" fill="#000"/>
<path d="M5.5 10C5.91421 10 6.25 9.66421 6.25 9.25C6.25 8.83579 5.91421 8.5 5.5 8.5C5.08579 8.5 4.75 8.83579 4.75 9.25C4.75 9.66421 5.08579 10 5.5 10Z" fill="black"/>
<path d="M8 10C8.41421 10 8.75 9.66421 8.75 9.25C8.75 8.83579 8.41421 8.5 8 8.5C7.58579 8.5 7.25 8.83579 7.25 9.25C7.25 9.66421 7.58579 10 8 10Z" fill="black"/>
<path d="M10.5 10C10.9142 10 11.25 9.66421 11.25 9.25C11.25 8.83579 10.9142 8.5 10.5 8.5C10.0858 8.5 9.75 8.83579 9.75 9.25C9.75 9.66421 10.0858 10 10.5 10Z" fill="black"/>
<path d="M5.5 12.5C5.91421 12.5 6.25 12.1642 6.25 11.75C6.25 11.3358 5.91421 11 5.5 11C5.08579 11 4.75 11.3358 4.75 11.75C4.75 12.1642 5.08579 12.5 5.5 12.5Z" fill="black"/>
<path d="M8 12.5C8.41421 12.5 8.75 12.1642 8.75 11.75C8.75 11.3358 8.41421 11 8 11C7.58579 11 7.25 11.3358 7.25 11.75C7.25 12.1642 7.58579 12.5 8 12.5Z" fill="black"/>
<path d="M10.5 12.5C10.9142 12.5 11.25 12.1642 11.25 11.75C11.25 11.3358 10.9142 11 10.5 11C10.0858 11 9.75 11.3358 9.75 11.75C9.75 12.1642 10.0858 12.5 10.5 12.5Z" fill="black"/>
</svg>
