<svg width="16" height="16" viewBox="0 0 16 16" fill="none" xmlns="http://www.w3.org/2000/svg">
<path fill-rule="evenodd" clip-rule="evenodd" d="M5.58397 2.22265C5.67671 2.08355 5.83282 2 6 2H10C10.1672 2 10.3233 2.08355 10.416 2.22265L11.2676 3.5H13C13.3978 3.5 13.7794 3.65804 14.0607 3.93934C14.342 4.22064 14.5 4.60217 14.5 5V12C14.5 12.3978 14.342 12.7794 14.0607 13.0607C13.7794 13.342 13.3978 13.5 13 13.5H3C2.60218 13.5 2.22064 13.342 1.93934 13.0607C1.65804 12.7794 1.5 12.3978 1.5 12V5C1.5 4.60218 1.65804 4.22064 1.93934 3.93934C2.22064 3.65804 2.60218 3.5 3 3.5H4.73241L5.58397 2.22265ZM6.26759 3L5.41603 4.27735C5.32329 4.41645 5.16718 4.5 5 4.5H3C2.86739 4.5 2.74021 4.55268 2.64645 4.64645C2.55268 4.74022 2.5 4.86739 2.5 5V12C2.5 12.1326 2.55268 12.2598 2.64645 12.3536C2.74021 12.4473 2.86739 12.5 3 12.5H13C13.1326 12.5 13.2598 12.4473 13.3536 12.3536C13.4473 12.2598 13.5 12.1326 13.5 12V5C13.5 4.86739 13.4473 4.74022 13.3536 4.64645C13.2598 4.55268 13.1326 4.5 13 4.5H11C10.8328 4.5 10.6767 4.41645 10.584 4.27735L9.73241 3H6.26759Z" fill="#000"/>
<path fill-rule="evenodd" clip-rule="evenodd" d="M8 6.5C7.0335 6.5 6.25 7.2835 6.25 8.25C6.25 9.2165 7.0335 10 8 10C8.9665 10 9.75 9.2165 9.75 8.25C9.75 7.2835 8.9665 6.5 8 6.5ZM5.25 8.25C5.25 6.73122 6.48122 5.5 8 5.5C9.51878 5.5 10.75 6.73122 10.75 8.25C10.75 9.76878 9.51878 11 8 11C6.48122 11 5.25 9.76878 5.25 8.25Z" fill="#000"/>
</svg>
