<svg width="16" height="16" viewBox="0 0 16 16" fill="none" xmlns="http://www.w3.org/2000/svg">
<path fill-rule="evenodd" clip-rule="evenodd" d="M1.5 5.5C1.5 4.94772 1.94772 4.5 2.5 4.5H13.5C14.0523 4.5 14.5 4.94772 14.5 5.5V7.5C14.5 8.05228 14.0523 8.5 13.5 8.5H2.5C1.94772 8.5 1.5 8.05228 1.5 7.5V5.5ZM13.5 5.5H2.5V7.5H13.5V5.5Z" fill="#000"/>
<path fill-rule="evenodd" clip-rule="evenodd" d="M3 7.5C3.27614 7.5 3.5 7.72386 3.5 8V12.5H12.5V8C12.5 7.72386 12.7239 7.5 13 7.5C13.2761 7.5 13.5 7.72386 13.5 8V12.5C13.5 12.7652 13.3946 13.0196 13.2071 13.2071C13.0196 13.3946 12.7652 13.5 12.5 13.5H3.5C3.23478 13.5 2.98043 13.3946 2.79289 13.2071C2.60536 13.0196 2.5 12.7652 2.5 12.5V8C2.5 7.72386 2.72386 7.5 3 7.5Z" fill="#000"/>
<path fill-rule="evenodd" clip-rule="evenodd" d="M8 4.5C8.27614 4.5 8.5 4.72386 8.5 5V13C8.5 13.2761 8.27614 13.5 8 13.5C7.72386 13.5 7.5 13.2761 7.5 13V5C7.5 4.72386 7.72386 4.5 8 4.5Z" fill="black"/>
<path fill-rule="evenodd" clip-rule="evenodd" d="M9.06063 2.52148C8.96335 2.62002 8.86156 2.80124 8.77243 3.06942C8.68589 3.32979 8.62502 3.62956 8.58327 3.92219C8.55482 4.12157 8.53603 4.31199 8.52364 4.47636C8.68801 4.46397 8.87844 4.44518 9.07781 4.41674C9.37044 4.37499 9.67021 4.31411 9.93059 4.22757C10.1988 4.13844 10.38 4.03665 10.4785 3.93936C10.666 3.75141 10.7714 3.49676 10.7714 3.23126C10.7714 2.96535 10.6657 2.71033 10.4777 2.52231C10.2897 2.33428 10.0347 2.22865 9.76875 2.22865C9.50323 2.22865 9.24858 2.33397 9.06063 2.52148ZM10.8312 4.29375L11.1848 4.64731C11.5604 4.27175 11.7714 3.76238 11.7714 3.23126C11.7714 2.70013 11.5604 2.19076 11.1848 1.8152C10.8092 1.43964 10.2999 1.22865 9.76875 1.22865C9.23763 1.22865 8.72826 1.43964 8.3527 1.8152L8.35114 1.81676C8.09552 2.07464 7.93275 2.42522 7.82347 2.75403C7.71137 3.09131 7.63982 3.45482 7.59329 3.78094C7.54648 4.10904 7.52329 4.41163 7.51173 4.63155C7.50592 4.74189 7.50299 4.83236 7.50151 4.89595C7.50077 4.92777 7.5004 4.95292 7.5002 4.97054L7.50003 4.99123L7.5 4.99715L7.5 4.99896L7.5 4.99958C7.5 4.99968 7.5 5 8 5L7.5 4.99958C7.5 5.13219 7.55268 5.25979 7.64645 5.35356C7.74021 5.44733 7.86739 5.5 8 5.5V5C8 5.5 7.9999 5.5 8 5.5L8.00104 5.5L8.00286 5.5L8.00877 5.49998L8.02946 5.4998C8.04708 5.49961 8.07224 5.49923 8.10405 5.49849C8.16765 5.49701 8.25812 5.49408 8.36845 5.48828C8.58838 5.47671 8.89096 5.45352 9.21906 5.40671C9.54518 5.36018 9.9087 5.28863 10.246 5.17654C10.5748 5.06726 10.9254 4.90448 11.1832 4.64886L10.8312 4.29375Z" fill="black"/>
<path fill-rule="evenodd" clip-rule="evenodd" d="M4.81506 1.8152C5.19062 1.43964 5.69999 1.22865 6.23112 1.22865C6.76224 1.22865 7.27161 1.43964 7.64717 1.8152L7.64873 1.81676C7.90435 2.07464 8.06712 2.42522 8.1764 2.75403C8.2885 3.09131 8.36004 3.45482 8.40657 3.78094C8.45339 4.10904 8.47657 4.41163 8.48814 4.63155C8.49395 4.74189 8.49687 4.83236 8.49835 4.89595C8.49909 4.92777 8.49947 4.95292 8.49966 4.97054L8.49984 4.99123L8.49986 4.99715L8.49987 4.99896L8.49987 4.99958C8.49987 4.99968 8.49987 5 7.99987 5C7.99987 5.5 7.99978 5.5 7.99968 5.5L7.99883 5.5L7.99701 5.5L7.99109 5.49998L7.97041 5.4998C7.95279 5.49961 7.92763 5.49923 7.89581 5.49849C7.83222 5.49701 7.74175 5.49408 7.63141 5.48828C7.41149 5.47671 7.10891 5.45352 6.78081 5.40671C6.45468 5.36018 6.09117 5.28863 5.75389 5.17654C5.42508 5.06726 5.07451 4.90448 4.81662 4.64886L5.16862 4.29376L4.81506 4.64731C4.4395 4.27175 4.22852 3.76238 4.22852 3.23126C4.22852 2.70013 4.4395 2.19076 4.81506 1.8152ZM5.52133 3.93936C5.61986 4.03665 5.80109 4.13844 6.06928 4.22757C6.32966 4.31411 6.62943 4.37499 6.92205 4.41674C7.12143 4.44518 7.31186 4.46397 7.47623 4.47636C7.46384 4.31199 7.44504 4.12157 7.4166 3.92219C7.37485 3.62956 7.31397 3.32979 7.22744 3.06942C7.1383 2.80122 7.03651 2.62 6.93922 2.52147C6.75128 2.33397 6.49663 2.22865 6.23112 2.22865C5.96521 2.22865 5.7102 2.33428 5.52217 2.52231C5.33415 2.71033 5.22852 2.96535 5.22852 3.23126C5.22852 3.49676 5.33383 3.75141 5.52133 3.93936ZM7.99987 5L7.99968 5.5C8.13229 5.5 8.25965 5.44733 8.35342 5.35356C8.44719 5.25979 8.49987 5.13219 8.49987 4.99958L7.99987 5Z" fill="black"/>
</svg>
