<svg width="121" height="20" viewBox="0 0 121 20" fill="none" xmlns="http://www.w3.org/2000/svg">
<path d="M108.686 6.80224L108.617 6.96529L108.441 6.97885L102.505 7.45076L107.025 11.3286L107.16 11.4439L107.118 11.6157L105.733 17.4078L110.817 14.3075L110.968 14.2148L111.119 14.3077L116.2 17.4133L114.822 11.6205L114.781 11.4486L114.915 11.3334L119.441 7.46125L113.504 6.98199L113.327 6.96821L113.26 6.80508L110.976 1.30366L108.686 6.80224Z" fill="url(#paint0_linear_5_32)" stroke="url(#paint1_linear_5_32)" stroke-width="0.579505"/>
<path d="M83.5908 6.80222L83.5224 6.96527L83.3456 6.97883L77.4098 7.45074L81.9298 11.3285L82.0645 11.4439L82.0234 11.6157L80.638 17.4078L85.7219 14.3074L85.8733 14.2148L86.0237 14.3076L91.1048 17.4133L89.7265 11.6205L89.6856 11.4486L89.8204 11.3334L94.3463 7.46123L88.4091 6.98196L88.2323 6.96818L88.165 6.80505L85.8813 1.30364L83.5908 6.80222Z" fill="#F1C644" stroke="#F1C644" stroke-width="0.579505"/>
<path d="M58.4871 6.80222L58.4186 6.96527L58.2419 6.97883L52.306 7.45074L56.8261 11.3285L56.9608 11.4439L56.9196 11.6157L55.5342 17.4078L60.6182 14.3074L60.7696 14.2148L60.9199 14.3076L66.001 17.4133L64.6228 11.6205L64.5819 11.4486L64.7167 11.3334L69.2425 7.46123L63.3053 6.98196L63.1286 6.96818L63.0613 6.80505L60.7776 1.30364L58.4871 6.80222Z" fill="#F1C644" stroke="#F1C644" stroke-width="0.579505"/>
<path d="M33.3833 6.80222L33.3149 6.96527L33.1381 6.97883L27.2023 7.45074L31.7223 11.3285L31.857 11.4439L31.8159 11.6157L30.4305 17.4078L35.5144 14.3074L35.6659 14.2148L35.8162 14.3076L40.8973 17.4133L39.519 11.6205L39.4781 11.4486L39.613 11.3334L44.1388 7.46123L38.2016 6.98196L38.0248 6.96818L37.9576 6.80505L35.6739 1.30364L33.3833 6.80222Z" fill="#F1C644" stroke="#F1C644" stroke-width="0.579505"/>
<path d="M8.27961 6.80222L8.21115 6.96527L8.03438 6.97883L2.09854 7.45074L6.6186 11.3285L6.75329 11.4439L6.71217 11.6157L5.32675 17.4078L10.4107 14.3074L10.5621 14.2148L10.7125 14.3076L15.7935 17.4133L14.4153 11.6205L14.3744 11.4486L14.5092 11.3334L19.0351 7.46123L13.0979 6.98196L12.9211 6.96818L12.8538 6.80505L10.5701 1.30364L8.27961 6.80222Z" fill="#F1C644" stroke="#F1C644" stroke-width="0.579505"/>
<defs>
<linearGradient id="paint0_linear_5_32" x1="107.248" y1="10.9563" x2="118.404" y2="10.9563" gradientUnits="userSpaceOnUse">
<stop stop-color="#F1C644"/>
<stop offset="0.364583" stop-color="#F7CA0D"/>
<stop offset="1" stop-color="white"/>
</linearGradient>
<linearGradient id="paint1_linear_5_32" x1="112.082" y1="11.3281" x2="120.263" y2="11.3281" gradientUnits="userSpaceOnUse">
<stop stop-color="#F1C644"/>
<stop offset="1" stop-color="white" stop-opacity="0"/>
</linearGradient>
</defs>
</svg>
