<svg width="16" height="16" viewBox="0 0 16 16"  xmlns="http://www.w3.org/2000/svg">
<path      d="M2 3C2 2.44772 2.44772 2 3 2H5C5.55228 2 6 2.44772 6 3V13C6 13.5523 5.55228 14 5 14H3C2.44772 14 2 13.5523 2 13V3ZM5 3H3V13H5V3Z" fill="#000"/>
<path      d="M2 5C2 4.72386 2.22386 4.5 2.5 4.5H5.5C5.77614 4.5 6 4.72386 6 5C6 5.27614 5.77614 5.5 5.5 5.5H2.5C2.22386 5.5 2 5.27614 2 5Z" fill="#000"/>
<path      d="M5 3C5 2.44772 5.44772 2 6 2H8C8.55228 2 9 2.44772 9 3V13C9 13.5523 8.55228 14 8 14H6C5.44772 14 5 13.5523 5 13V3ZM8 3H6V13H8V3Z"    />
<path      d="M5 11C5 10.7239 5.22386 10.5 5.5 10.5H8.5C8.77614 10.5 9 10.7239 9 11C9 11.2761 8.77614 11.5 8.5 11.5H5.5C5.22386 11.5 5 11.2761 5 11Z"    />
<path      d="M8.19066 3.60138C8.04707 3.06566 8.36495 2.51497 8.90066 2.37138L10.8407 1.85138C11.3764 1.70778 11.9271 2.02566 12.0707 2.56138L14.6707 12.2614C14.8143 12.7971 14.4964 13.3478 13.9607 13.4914L12.0207 14.0114C11.4849 14.155 10.9343 13.8371 10.7907 13.3014L8.19066 3.60138ZM11.1007 2.82138L9.16066 3.34138L11.7607 13.0414L13.7007 12.5214L11.1007 2.82138Z"    />
<path      d="M14.0831 10.2887C14.1549 10.5553 13.997 10.8297 13.7304 10.9015L10.8304 11.6828C10.5637 11.7546 10.2894 11.5967 10.2175 11.3301C10.1457 11.0634 10.3036 10.789 10.5703 10.7172L13.4703 9.93596C13.7369 9.86413 14.0113 10.0221 14.0831 10.2887Z"    />
<path      d="M12.5326 4.49591C12.6039 4.76269 12.4454 5.03676 12.1786 5.10805L9.27863 5.88305C9.01185 5.95434 8.73778 5.79587 8.66649 5.52909C8.59519 5.26231 8.75367 4.98825 9.02045 4.91695L11.9204 4.14195C12.1872 4.07066 12.4613 4.22913 12.5326 4.49591Z"    />
</svg>
